<svg width="33" height="50" viewBox="0 0 33 50" fill="none" xmlns="http://www.w3.org/2000/svg">
<path d="M16.2295 50C16.2841 50 16.2841 50 16.2841 50C18.7431 50 21.0382 49.1257 23.1694 47.5956H23.224L23.2787 47.541C25.2459 46.0656 26.9945 44.0437 28.4153 41.5847C28.4699 41.5301 28.4699 41.4754 28.5246 41.4208C29.7268 39.3442 30.6558 36.9399 31.3661 34.317C32.1312 31.4754 32.5136 28.306 32.5136 25.082C32.5136 21.8032 32.0765 18.6885 31.3661 15.847C30.7104 13.224 29.7268 10.8197 28.5246 8.74317C28.5246 8.68853 28.4699 8.63388 28.4153 8.57924C26.9945 6.12022 25.2459 4.04372 23.2787 2.62295L23.224 2.5683H23.1694C21.0382 0.874317 18.7431 0 16.2841 0C16.2841 0 16.2841 0 16.2295 0C16.2295 0 16.2295 0 16.1749 0C13.7159 0 11.3661 0.874317 9.28962 2.40437H9.23497L9.18032 2.45902C7.21312 3.93442 5.46448 5.95628 4.04372 8.4153C3.98907 8.46994 3.98907 8.52459 3.93442 8.57924C2.78688 10.6558 1.80327 13.0055 1.14754 15.5737C1.14754 15.6284 1.09289 15.683 1.09289 15.7377C0.437159 18.5792 0 21.7486 0 25.0274C0 28.306 0.437159 31.4208 1.14754 34.317C1.14754 34.3716 1.14754 34.4263 1.20219 34.4809C1.85792 37.0492 2.84153 39.3989 3.98907 41.4754C3.98907 41.5301 4.04372 41.5847 4.09836 41.6393C5.51913 44.0983 7.26776 46.1749 9.23497 47.5956L9.28962 47.6503H9.34426C11.4208 49.1257 13.7705 50 16.2295 50ZM10.2732 46.9945L12.6775 43.1694L15.4098 48.8524C13.552 48.7431 11.8579 48.0874 10.2732 46.9945ZM2.29508 34.4809L4.86339 33.0601L4.15301 39.4535C3.38798 37.9235 2.78688 36.2841 2.29508 34.4809ZM4.15301 10.5465L4.86339 16.9399L2.29508 15.5191C2.78688 13.7159 3.38798 12.0765 4.15301 10.5465ZM15.3552 1.09289L12.6229 6.77596L10.2186 2.95082C11.8579 1.91257 13.552 1.25683 15.3552 1.09289ZM22.1858 3.00546L19.7814 6.8306L17.1038 1.09289C18.9071 1.25683 20.6011 1.91257 22.1858 3.00546ZM30.1639 15.5191L27.6503 16.9399L28.3607 10.5465C29.0711 12.0765 29.6722 13.7159 30.1639 15.5191ZM28.306 39.4535L27.5956 33.0601L30.1639 34.4809C29.6722 36.2841 29.0711 37.9235 28.306 39.4535ZM17.1038 48.9071L19.8361 43.224L22.2404 47.0492C20.6011 48.0875 18.9071 48.7431 17.1038 48.9071ZM7.37705 26.9945L9.39891 34.153L6.06558 31.9125L7.37705 26.9945ZM6.06558 18.1421L9.39891 15.9017L7.37705 23.0601L6.06558 18.1421ZM25.082 23.0601L23.0601 15.847L26.3934 18.1421L25.082 23.0601ZM26.3934 31.8579L23.0601 34.0983L25.082 26.9399L26.3934 31.8579ZM10.765 35.082L7.9235 25.0274L10.765 14.9726L16.2295 10.4918L21.694 14.9726L24.5355 25.0274L21.694 35.082L16.2295 39.5628L10.765 35.082ZM17.2131 40.1639L21.0382 37.0492L19.4535 41.3661L17.2131 40.1639ZM25.6284 25.0274L27.2131 19.1257L31.3115 25.0274L27.2131 30.9289L25.6284 25.0274ZM17.2131 9.83608L19.4535 8.63388L21.0382 12.9508L17.2131 9.83608ZM19.0711 7.65027L16.2295 9.12569L13.4426 7.65027L16.2841 1.74864L19.0711 7.65027ZM15.3006 9.83608L11.4754 12.9508L13.0601 8.63388L15.3006 9.83608ZM6.8306 25.0274L5.2459 30.8743L1.14754 25.0274L5.2459 19.1257L6.8306 25.0274ZM15.3006 40.1639L13.0601 41.3661L11.4754 37.0492L15.3006 40.1639ZM13.4426 42.3497L16.2841 40.8743L19.1257 42.3497L16.2841 48.2514L13.4426 42.3497ZM22.5683 35.7377L26.5574 33.0055L27.3771 40.7104L20.4918 41.4208L22.5683 35.7377ZM27.7596 31.9125L31.3661 26.7213C31.2569 29.0711 30.9289 31.3115 30.4372 33.3879L27.7596 31.9125ZM27.7596 18.0875L30.4372 16.6121C30.9289 18.6885 31.2569 20.9289 31.3661 23.2787L27.7596 18.0875ZM26.5574 16.9945L22.5683 14.2623L20.4918 8.52459L27.4317 9.28962L26.5574 16.9945ZM9.89069 14.2623L5.90164 16.9945L5.08197 9.28962L11.9673 8.57924L9.89069 14.2623ZM4.69945 18.0875L1.09289 23.2787C1.20219 20.9289 1.53006 18.6885 2.02185 16.6121L4.69945 18.0875ZM4.69945 31.9125L2.02185 33.3879C1.53006 31.3115 1.20219 29.0164 1.09289 26.7213L4.69945 31.9125ZM5.90164 33.0601L9.89069 35.7924L11.9673 41.5301L5.08197 40.765L5.90164 33.0601ZM23.0601 46.3934L20.6558 42.5683L26.9945 41.9126C25.847 43.7159 24.5355 45.1913 23.0601 46.3934ZM26.9945 8.14208L20.6558 7.48634L23.0601 3.66121C24.5355 4.80875 25.847 6.33879 26.9945 8.14208ZM9.39891 3.60656L11.8032 7.4317L5.46448 8.14208C6.61202 6.33879 7.97814 4.80874 9.39891 3.60656ZM5.46448 41.8579L11.8032 42.5136L9.39891 46.3388C7.97814 45.1913 6.61202 43.7159 5.46448 41.8579Z" fill="#100E31"/>
</svg>
