<svg width="50" height="50" viewBox="0 0 50 50" fill="none" xmlns="http://www.w3.org/2000/svg">
<path d="M48.7361 12.6906C47.3908 5.83556 42.3937 2.88855 42.1375 2.76042C40.2795 1.8635 38.4216 1.41504 36.5637 1.41504C35.3465 1.41504 34.1933 1.60724 33.1682 1.92756C29.004 3.20887 26.1851 6.66842 25.0319 8.27005C23.8788 6.66842 21.124 3.27294 16.8956 1.92756C15.8065 1.60724 14.7174 1.41504 13.5001 1.41504C11.6423 1.41504 9.78434 1.8635 7.86236 2.76042C7.6061 2.88855 2.67306 5.83556 1.26362 12.6906C0.879223 14.4844 0.815157 16.3423 1.00735 18.3283C0.879223 18.5205 0.879223 18.7768 1.00735 18.969C1.07142 19.0331 1.07142 19.0971 1.13549 19.1612C1.90427 24.6067 4.78722 30.6289 9.72029 37.1636C12.4751 40.8153 24.1991 47.8626 24.7116 48.1829C24.7116 48.1829 24.7757 48.2469 24.8397 48.2469C24.8397 48.2469 24.8397 48.2469 24.9038 48.2469C24.9678 48.2469 25.0319 48.2469 25.0319 48.2469C25.0959 48.2469 25.1601 48.2469 25.1601 48.2469C25.1601 48.2469 25.1601 48.2469 25.2242 48.2469C25.2882 48.2469 25.2882 48.2469 25.3523 48.1829C25.8648 47.8626 37.5247 40.7513 40.2795 37.1636C45.2126 30.6289 48.0955 24.6067 48.8643 19.1612C48.9284 19.0971 48.9925 19.0331 48.9925 18.969C49.1206 18.7768 49.0565 18.5205 48.9925 18.3283C49.1846 16.3423 49.1206 14.4844 48.7361 12.6906ZM47.7752 17.5596L44.5719 15.7657L46.7501 10.3201C47.0705 11.0889 47.3267 11.9859 47.5189 12.9468C47.7752 14.4203 47.8393 15.9579 47.7752 17.5596ZM46.9424 22.0441L45.0204 17.4955L47.583 18.9049C47.4548 19.9299 47.2626 21.0191 46.9424 22.0441ZM31.6947 42.5451L30.3493 41.3919L35.923 39.4699C34.6418 40.495 33.1042 41.5841 31.6947 42.5451ZM14.1408 39.4699L19.7145 41.3919L18.3692 42.5451C16.8956 41.5841 15.4221 40.495 14.1408 39.4699ZM2.4168 18.969L4.97942 17.5596L3.05745 22.1082C2.80118 21.0191 2.54493 19.9299 2.4168 18.969ZM25.6726 10.2561L28.043 10.7686L25.6726 12.4983V10.2561ZM24.3912 12.4983L22.0209 10.7686L24.3912 10.2561V12.4983ZM24.6476 14.2922C24.6476 14.3563 24.6476 14.3563 24.6476 14.2922C24.7116 14.2922 24.7116 14.3563 24.7116 14.3563C24.7116 14.3563 24.7116 14.3563 24.7757 14.3563C24.8397 14.4203 24.9678 14.4203 25.0319 14.4203C25.0959 14.4203 25.2242 14.4203 25.2882 14.3563C25.2882 14.3563 25.2882 14.3563 25.3523 14.3563C25.3523 14.3563 25.4163 14.3563 25.4163 14.2922C25.4163 14.2922 25.4163 14.2922 25.4804 14.2922L29.7727 11.153L36.6919 12.9468V22.3645L31.8228 29.9882L25.0319 35.5619L18.2409 29.9882L13.372 22.3645V12.9468L20.3551 11.153L24.6476 14.2922ZM43.4187 15.125L38.0373 12.0499V5.96369L45.7892 9.03884L43.4187 15.125ZM28.8118 39.8544L25.9289 36.4589L31.0541 32.2947L28.8118 39.8544ZM21.2521 39.8544L18.9457 32.2947L24.0709 36.4589L21.2521 39.8544ZM12.0266 21.0191L7.34984 16.2142L12.0266 13.5875V21.0191ZM12.7954 23.9661L16.3831 29.5399L10.8734 28.4507L12.7954 23.9661ZM17.2159 31.0133L19.9708 40.1106L11.7704 37.2917L10.7453 29.668L17.2159 31.0133ZM25.0319 37.4198L28.2992 41.1998L25.0319 46.389L21.7646 41.1998L25.0319 37.4198ZM32.7839 31.0133L39.3185 29.732L38.2935 37.2917L30.0931 40.1106L32.7839 31.0133ZM33.6808 29.5399L37.2684 23.9661L39.1904 28.4507L33.6808 29.5399ZM37.9731 13.5875L42.6499 16.2142L37.9731 21.0191V13.5875ZM36.6919 6.28402V11.6655L31.0541 10.2561L36.6919 6.28402ZM13.3079 11.6015V6.28402L18.9457 10.192L13.3079 11.6015ZM12.0266 12.0499L6.64512 15.125L4.21063 9.03884L12.0266 5.96369V12.0499ZM6.51699 17.1751L11.8985 22.6848L9.65623 27.8741L3.76218 23.6458L6.51699 17.1751ZM20.8036 42.0966L22.9818 45.5562C21.9568 44.9155 20.7395 44.1467 19.4582 43.2498L20.8036 42.0966ZM29.1961 42.0966L30.5415 43.3139C29.2603 44.2108 27.979 44.9796 27.0179 45.6202L29.1961 42.0966ZM40.3436 27.8741L38.1013 22.6848L43.4828 17.1751L46.2376 23.6458L40.3436 27.8741ZM45.0844 7.37313L38.742 4.87458L40.7279 3.5292C40.9842 3.65733 41.2405 3.7214 41.4968 3.84953C41.5609 3.9136 43.4187 5.00271 45.0844 7.37313ZM39.1904 3.01668L37.3325 4.23393L34.9621 2.82448C35.4746 2.76042 36.0512 2.69635 36.5637 2.69635C37.3966 2.69635 38.2935 2.82448 39.1904 3.01668ZM33.2323 3.27294L36.1793 5.06677L29.4525 9.80762L26.121 9.03884C27.082 7.6294 29.5806 4.55425 33.2323 3.27294ZM23.9428 9.03884L20.6114 9.80762L13.8845 5.06677L16.8315 3.27294C20.4193 4.55425 22.9177 7.6294 23.9428 9.03884ZM15.0377 2.82448L12.6673 4.23393L10.8093 3.01668C11.7704 2.82448 12.6032 2.69635 13.5001 2.69635C14.0126 2.69635 14.5252 2.76042 15.0377 2.82448ZM8.43896 3.9136C8.69521 3.78546 9.01554 3.65733 9.27181 3.5292L11.2578 4.87458L4.91535 7.37313C6.64512 5.00271 8.43896 3.9136 8.43896 3.9136ZM2.54493 13.0109C2.73712 12.0499 2.99338 11.153 3.31371 10.3842L5.49194 15.8298L2.28867 17.6236C2.16053 15.9579 2.2246 14.4203 2.54493 13.0109ZM4.40283 25.6959L9.39994 29.2835L10.2969 35.6901C7.67017 32.1665 5.68414 28.835 4.40283 25.6959ZM39.831 35.626L40.7279 29.2195L45.7251 25.6318C44.3157 28.835 42.3937 32.1665 39.831 35.626Z" fill="#100E31"/>
</svg>
