<svg width="50" height="32" viewBox="0 0 50 32" fill="none" xmlns="http://www.w3.org/2000/svg">
<path d="M49.9446 8.9701C50 8.91473 50 8.80399 50 8.74862V8.69324C50 8.63787 50 8.5825 49.9446 8.52713L49.8892 8.47176C49.8339 8.41639 49.8339 8.41639 49.7785 8.36102L39.092 0.110742C39.0366 0.055371 38.9812 0.055371 38.9812 0.055371C38.8704 0 38.8151 0 38.7597 0H11.2957C11.2403 0 11.1849 0 11.1296 0.055371C11.0742 0.055371 11.0188 0.110742 10.9634 0.110742L0.221484 8.30565C0.166113 8.36102 0.166113 8.36102 0.110742 8.41639L0.055371 8.47176C0.055371 8.52713 0 8.5825 0 8.63787V8.69324C0 8.74862 0 8.85935 0.055371 8.91473C0.110742 8.9701 0.110742 9.02547 0.166113 9.08084L16.6113 23.7541L24.6401 31.0077C24.6955 31.0631 24.6955 31.0631 24.7508 31.0631C24.8062 31.0631 24.8616 31.1185 24.917 31.1185C24.9724 31.1185 25.0276 31.1185 25.083 31.0631C25.1384 31.0631 25.1384 31.0077 25.1938 31.0077L49.8339 9.19159C49.8892 9.13622 49.9446 9.08084 49.9446 8.9701ZM26.3012 28.6822L28.0177 24.1418L38.7597 12.9015L32.5581 23.0897L26.3012 28.6822ZM17.4419 23.0897L11.2403 12.9015L21.9823 24.1418L23.6988 28.6822L17.4419 23.0897ZM11.3511 1.21816L16.7221 3.87597L8.69324 7.86268L8.9701 3.0454L11.3511 1.21816ZM41.0853 3.0454L41.3622 7.86268L33.3333 3.87597L38.7043 1.21816L41.0853 3.0454ZM34.5515 8.1949L33.1673 5.03875L39.5349 8.1949H34.5515ZM25.6922 9.30232H33.3333L27.7963 21.8716L25.6922 9.30232ZM22.2591 21.9269L16.7221 9.3577H24.3632L22.2591 21.9269ZM31.7829 4.70653L33.2779 8.1949H26.7995L31.7829 4.70653ZM25.0276 8.08417L19.103 3.93134L25.0276 1.16279L30.9524 3.93134L25.0276 8.08417ZM23.2558 8.1949H16.7221L18.2171 4.70653L23.2558 8.1949ZM15.5039 8.1949H10.4651L16.8327 5.03875L15.5039 8.1949ZM15.5039 9.30232L20.7087 21.1518L9.41307 9.30232H15.5039ZM25.0276 12.1263L26.9657 23.7541L25.0276 29.0144L23.0897 23.7541L25.0276 12.1263ZM34.5515 9.30232H40.6424L29.3467 21.1518L34.5515 9.30232ZM32.0598 3.21152L27.5194 1.10742H36.3233L32.0598 3.21152ZM17.9956 3.21152L13.6767 1.10742H22.4806L17.9956 3.21152ZM7.53045 8.1949H2.21484L7.80731 3.93134L7.53045 8.1949ZM7.75194 9.30232L14.5625 20.5426L2.04873 9.30232H7.75194ZM42.248 9.30232H48.0067L35.4375 20.5426L42.248 9.30232ZM42.4695 8.1949L42.248 3.93134L47.8405 8.1949H42.4695Z" fill="#100E31"/>
</svg>
