<svg width="50" height="37" viewBox="0 0 50 37" fill="none" xmlns="http://www.w3.org/2000/svg">
<path d="M50 26.0204V10.5229C50 10.4592 50 10.3317 49.9363 10.2678V10.2041C49.8725 10.1403 49.8724 10.0766 49.8086 10.0127L39.4132 0.191326C39.2857 0.0637755 39.1581 0 38.9669 0H38.7118H11.2882H10.778C10.6505 0 10.4592 0.0637755 10.3317 0.191326L0.191326 10.0766C0.127551 10.1403 0.127551 10.2041 0.0637755 10.2678C0.0637755 10.2678 0.0637755 10.2678 0.0637755 10.3317C0 10.3317 0 10.4592 0 10.5229V26.0204C0 26.0842 0 26.1479 0.0637755 26.2755C0.0637755 26.2755 0.0637755 26.2755 0.0637755 26.3393C0.0637755 26.403 0.127551 26.4669 0.191326 26.5306L10.3317 36.3521C10.4592 36.4796 10.5868 36.5433 10.778 36.5433H11.2882H38.7755H39.0306C39.1581 36.5433 39.3495 36.4796 39.4132 36.3521L49.8086 26.4669C49.8724 26.403 49.8725 26.3393 49.9363 26.2755V26.2118C50 26.2118 50 26.0842 50 26.0204ZM1.21174 25.2551V11.2882L4.01785 11.7984V24.7449L2.55102 25L1.21174 25.2551ZM7.39796 27.3597L6.31377 26.2118L6.82398 26.2755L9.18368 26.6581L10.0766 30.2296L7.39796 27.3597ZM20.0255 7.52551L15.5612 8.48215L10.5229 9.56632L11.6709 4.91072L14.9873 5.93113L20.0255 7.52551ZM20.0255 29.0178L11.6709 31.6327L10.5229 26.9771L20.0255 29.0178ZM8.73725 11.2245L7.14285 15.2424L5.54847 11.7347L5.9949 11.6709L8.73725 11.2245ZM5.4847 24.8086L7.07908 21.301L8.67347 25.3189L5.9949 24.8725L5.4847 24.8086ZM9.18368 9.82147L6.31377 10.3317L10.0766 6.31378L9.18368 9.82147ZM5.22959 14.0306L6.56887 16.9005V19.5791L5.22959 22.449V14.0306ZM22.5766 28.2526L15.4975 26.7857L10.0766 25.6377L7.71683 19.6428V16.9005L10.0766 10.9056L14.6683 9.8852L22.5766 8.29081H27.4234L35.3317 10.0127L39.8597 10.9694L42.2194 16.9643V19.7067L39.8597 25.7016L34.5664 26.8495L27.4234 28.2526H22.5766ZM38.903 29.3368L38.3291 31.6327L29.9745 29.0178L39.4771 26.9771L38.903 29.3368ZM44.5153 11.7347L42.9209 15.2424L41.3266 11.2245L44.0689 11.6709L44.5153 11.7347ZM41.2627 25.3189L42.7296 21.6836L42.9209 21.301L44.5153 24.8086L44.0051 24.8725L41.2627 25.3189ZM43.6862 10.3317L40.8164 9.82147L39.9234 6.25L43.6862 10.3317ZM38.3291 4.91072L38.903 7.27041L39.4771 9.50255L29.9745 7.52551L34.8215 5.9949L38.3291 4.91072ZM40.8164 26.722L43.6862 26.2118L39.9234 30.2296L40.8164 26.722ZM44.7704 22.5127L43.4311 19.6428V16.9643L44.7704 14.0944V22.5127ZM27.3597 7.0153H22.5766L15.3699 4.78317H34.5664L27.3597 7.0153ZM22.5766 29.528H27.3597L34.5664 31.7602H15.3699L22.5766 29.528ZM45.9822 24.7449V11.7984L48.7882 11.2882V25.2551L47.449 25L45.9822 24.7449ZM48.0868 10.1403L46.5561 10.3954L45.6632 10.5868L39.3495 3.8903V1.84949L48.0868 10.1403ZM38.1377 3.50766H11.8623V1.27551H38.1377V3.50766ZM10.6505 1.59439V3.8903L4.40051 10.5868L4.08164 10.5229L1.91326 10.1403L10.6505 1.59439ZM1.91326 26.403L3.57143 26.0842L4.40051 25.8928L10.6505 32.5893V34.8852L1.91326 26.403ZM11.8623 33.0357H38.1377V35.2678H11.8623V33.0357ZM39.3495 34.6939V32.653L40.9439 30.9311L45.5995 25.9567L45.9183 26.0204L48.0868 26.403L39.3495 34.6939Z" fill="#100E31"/>
</svg>
