<svg width="50" height="50" viewBox="0 0 50 50" fill="none" xmlns="http://www.w3.org/2000/svg">
<g clip-path="url(#clip0_3_117)">
<path d="M41.2768 34.0185C41.2768 33.8196 41.343 33.7533 41.343 33.7533C41.343 31.8302 41.2105 29.9734 40.9452 28.183V28.1167C40.2821 23.8726 38.9558 20.0266 37.3643 16.5782C37.3643 16.4456 37.2979 16.313 37.2317 16.2467C35.5075 12.5995 33.4519 9.41644 31.5951 6.89655C31.5951 6.83024 31.5287 6.83024 31.5287 6.76392L31.4624 6.69761C28.4121 2.65252 25.8259 0.265252 25.7595 0.198939C25.7595 0.198939 25.6932 0.198939 25.6932 0.132626C25.6932 0.132626 25.6932 0.132626 25.6269 0.066313C25.6269 0.066313 25.6269 0.066313 25.5606 0.066313C25.5606 0.066313 25.5606 0.066313 25.4943 0.066313H25.4279H25.3617C25.3617 0.066313 25.3617 0.066313 25.2953 0.066313C25.229 0 25.229 0 25.1627 0H25.0964H25.0301C25.0301 0 25.0301 0 24.9637 0C24.9637 0 24.9637 0 24.8974 0.066313C24.8974 0.066313 24.8312 0.066313 24.8312 0.132626C24.7648 0.198939 22.1786 2.58621 19.1282 6.6313L19.062 6.69761C18.9956 6.76392 18.9956 6.83024 18.9956 6.83024C17.1388 9.35014 15.0831 12.5331 13.359 16.1804C13.2927 16.313 13.2264 16.4456 13.2264 16.5782C11.6349 20.0266 10.3749 23.8726 9.71178 27.9841C9.71178 28.0504 9.64547 28.1167 9.64547 28.183C9.44653 30.0398 9.31391 31.8302 9.31391 33.7533C9.31391 33.7533 9.31391 33.8196 9.31391 34.0185C9.24759 34.2175 9.31391 34.4165 9.38021 34.5491C9.57915 35.6101 9.97704 37.6658 10.9054 39.9204V39.9868C10.9054 40.053 10.9717 40.1857 11.038 40.252C11.7675 41.9098 12.7622 43.7003 14.1548 45.2255C14.2211 45.358 14.2874 45.4244 14.3537 45.4907C15.5473 46.817 17.0062 47.9443 18.7967 48.7401L18.8629 48.8064H18.9293C20.6534 49.5358 22.6428 50 24.9637 50H25.229H25.4943C27.8152 50 29.8046 49.5358 31.5287 48.8064H31.5951C31.5951 48.8064 31.6614 48.8064 31.6614 48.7401C33.4519 47.9443 34.9107 46.817 36.1043 45.4907C36.1707 45.4244 36.3033 45.358 36.3033 45.2255C37.6959 43.6339 38.6906 41.9098 39.42 40.252C39.4863 40.1857 39.5526 40.1193 39.5526 39.9868V39.9204C40.481 37.6658 40.8789 35.6764 41.0778 34.5491C41.2768 34.4165 41.2768 34.1512 41.2768 34.0185ZM38.5579 38.9921L37.3643 38.6605L39.42 36.4722C39.1548 37.2679 38.8895 38.13 38.5579 38.9921ZM31.6614 47.2812L30.9982 45.756L34.0486 45.6896C33.3855 46.2865 32.5898 46.817 31.6614 47.2812ZM16.4757 45.6896L19.5924 45.756L18.8629 47.3475C18.0009 46.817 17.2052 46.2865 16.4757 45.6896ZM11.1707 36.4722L13.2264 38.7268L11.9664 39.0583C11.6349 38.13 11.3696 37.2016 11.1707 36.4722ZM33.5845 12.2679L30.2688 8.62069L30.8656 8.1565C31.794 9.35014 32.7224 10.7427 33.5845 12.2679ZM24.3007 11.6048L19.7914 16.4456L21.6481 9.61538L24.3007 11.6048ZM25.2953 42.7719L18.7304 40.3846L16.6083 34.2176L19.062 19.2308L25.2953 12.4669L31.5287 19.2308L33.9824 34.2176L31.8603 40.3846L25.2953 42.7719ZM15.9452 36.4722L17.0062 39.5888L15.2821 38.6605L15.9452 36.4722ZM34.6455 36.4722L35.3086 38.7268L33.5181 39.5888L34.6455 36.4722ZM34.9107 31.6976L33.4519 22.679L36.3033 27.9177L34.9107 31.6976ZM32.7887 18.6339L30.6667 11.0079L36.038 16.9761L36.3033 25.0663L32.7887 18.6339ZM28.9425 9.61538L30.7993 16.4456L26.29 11.6048L28.9425 9.61538ZM25.2953 10.6764L22.1123 8.35544L25.2953 2.18833L28.4783 8.35544L25.2953 10.6764ZM15.6799 31.6976L14.2874 27.9177L17.1388 22.679L15.6799 31.6976ZM15.2158 34.2838L14.1548 37.7321L10.7728 34.0849L13.359 29.4429L15.2158 34.2838ZM17.7357 41.4456L19.4598 44.4297L15.481 44.3634L15.2821 40.252L17.7357 41.4456ZM20.9187 44.2971L19.725 42.1751L23.306 43.5013L20.9187 44.2971ZM25.2953 44.2308L28.6773 45.3581L25.2953 48.4748L21.9133 45.3581L25.2953 44.2308ZM27.3511 43.5013L30.932 42.1751L29.7383 44.2971L27.3511 43.5013ZM32.855 41.4456L35.3749 40.1857L35.176 44.2971L31.1972 44.3634L32.855 41.4456ZM36.4359 37.7321L35.3749 34.2838L37.1654 29.3767L39.7516 34.0185L36.4359 37.7321ZM37.497 20.3581C38.359 22.6127 39.0222 25 39.42 27.4536L37.6959 27.2546L37.497 20.3581ZM29.5394 7.49337L28.0142 4.50928C28.611 5.23873 29.3404 6.10079 30.0699 7.02918L29.5394 7.49337ZM21.0513 7.49337L20.5208 7.09549C21.2503 6.10079 21.9133 5.23873 22.5765 4.50928L21.0513 7.49337ZM17.802 18.6339L14.2874 25.0663L14.5526 16.9761L19.924 11.0079L17.802 18.6339ZM12.8948 27.2546L11.1707 27.4536C11.5685 24.9337 12.298 22.6127 13.0937 20.3581L12.8948 27.2546ZM10.9717 28.8462L12.298 28.6473L10.7065 31.4986C10.7728 30.6366 10.8391 29.7082 10.9717 28.8462ZM13.8895 39.9204L14.0884 42.9708C13.4916 42.1087 12.9611 41.1804 12.5632 40.3183L13.8895 39.9204ZM20.8523 46.2202L23.5049 48.6075C22.2449 48.4748 21.1839 48.2095 20.1229 47.8779L20.8523 46.2202ZM29.7383 46.2202L30.4677 47.8117C29.473 48.2095 28.3458 48.4748 27.1521 48.6075L29.7383 46.2202ZM36.7012 39.9204L37.9611 40.252C37.5632 41.114 37.099 41.9761 36.5023 42.8382L36.7012 39.9204ZM38.2926 28.6473L39.6189 28.8462C39.7516 29.7082 39.8178 30.6366 39.8842 31.565L38.2926 28.6473ZM19.725 8.1565L20.3219 8.62069L17.0062 12.2679C17.9346 10.7427 18.8629 9.35014 19.725 8.1565Z" fill="#100E31"/>
</g>
<defs>
<clipPath id="clip0_3_117">
<rect width="50" height="50" fill="white"/>
</clipPath>
</defs>
</svg>
