<svg width="50" height="50" viewBox="0 0 50 50" fill="none" xmlns="http://www.w3.org/2000/svg">
<g clip-path="url(#clip0_3_87)">
<path d="M48.4757 14.3875L48.404 14.1738C48.0458 13.3903 46.1111 9.40171 42.9583 5.84045C40.3072 2.77777 37.5842 0.854701 34.7181 0.0712251C34.6465 0.0712251 34.6465 0 34.5748 0C34.5031 0 34.4315 0 34.4315 0H15.5865C15.5148 0 15.4431 0 15.4431 0C15.3715 0 15.3715 0 15.2998 0.0712251C12.5053 0.854701 9.71081 2.77777 7.0596 5.84045C3.97847 9.40171 1.97216 13.3903 1.61389 14.1738L1.54224 14.3875C1.47058 14.4587 1.47058 14.6012 1.47058 14.6724V25V34.9003C1.47058 34.9715 1.47058 35.1139 1.54224 35.1852C1.61389 35.3276 1.61389 35.3988 1.68554 35.5413L1.7572 35.755C3.19028 38.9601 4.98163 41.7379 7.0596 44.0883L7.2029 44.2308C11.2871 48.7892 15.0132 50 15.1566 50C15.2281 50 15.2998 50 15.3715 50H15.4431H34.5748H34.6465C34.718 50 34.7897 50 34.8614 50C35.0047 49.9288 38.7307 48.7179 42.815 44.2308L42.8867 44.1595C44.9646 41.8803 46.6843 39.0314 48.189 35.8262L48.2607 35.6125C48.3323 35.4701 48.3323 35.3988 48.404 35.2564C48.4757 35.1852 48.4757 35.0427 48.4757 34.9715V25.0713V14.6724C48.5473 14.6012 48.5473 14.4587 48.4757 14.3875ZM47.1142 34.4729C46.8993 34.3305 46.6843 34.2592 46.4693 34.1168C46.4693 34.1168 46.3977 34.1168 46.3977 34.0456C46.1827 33.9743 46.0394 33.8319 45.8961 33.7607C45.8245 33.7607 45.7528 33.6894 45.7528 33.6894C45.6095 33.6182 45.4662 33.5471 45.3945 33.4758C45.3229 33.4758 45.2513 33.4046 45.1796 33.4046C45.1079 33.3333 44.9646 33.3333 44.8929 33.2622C44.8213 33.2622 44.7497 33.1909 44.678 33.1909C44.6064 33.1197 44.5347 33.1197 44.3914 33.0484C44.3197 33.0484 44.248 32.9773 44.248 32.9773C44.1765 32.9773 44.1048 32.906 44.0331 32.906C43.9615 32.906 43.9615 32.8348 43.8898 32.8348C43.8181 32.8348 43.7465 32.7635 43.6748 32.7635C43.6032 32.7635 43.6032 32.7635 43.5316 32.6924C43.4599 32.6924 43.4599 32.6924 43.3882 32.6211L47.2575 27.1368L47.1142 34.4729C47.1859 34.4729 47.1859 34.4729 47.1142 34.4729ZM35.0047 48.5043C35.0047 48.433 35.0047 48.3619 34.933 48.3619C34.8614 48.2194 34.8614 48.077 34.7897 48.0057C34.7897 47.9345 34.7181 47.8632 34.7181 47.7921C34.6465 47.6496 34.6465 47.5072 34.5748 47.4359C34.5748 47.3647 34.5031 47.2934 34.5031 47.2223C34.4315 47.0798 34.4315 46.9374 34.3598 46.7949C34.3598 46.7236 34.2881 46.6525 34.2881 46.5812C34.2165 46.3675 34.1449 46.2251 34.0732 46.0114C34.0016 45.7977 33.9299 45.6553 33.8582 45.4416C33.8582 45.3704 33.8582 45.3704 33.7866 45.2991C33.7149 45.1567 33.7149 45.0142 33.6432 44.943C33.6432 44.8718 33.5717 44.8006 33.5717 44.8006C33.5 44.7293 33.5 44.5869 33.4283 44.5157C33.4283 44.4444 33.3567 44.3732 33.3567 44.3732C33.3567 44.302 33.285 44.2308 33.285 44.1595C33.285 44.0883 33.285 44.0883 33.2133 44.0171H33.285C33.6432 44.0171 33.9299 44.0171 34.2881 44.0171C34.3598 44.0171 34.5031 44.0171 34.5748 44.0171C34.8614 44.0171 35.148 44.0171 35.5063 44.0883C35.5779 44.0883 35.6496 44.0883 35.7929 44.0883C36.1512 44.0883 36.5811 44.1595 36.9394 44.1595C37.0826 44.1595 37.1543 44.1595 37.2976 44.1595C37.5842 44.1595 37.8709 44.2308 38.1574 44.2308C38.3008 44.2308 38.4441 44.2308 38.5874 44.2308C38.874 44.2308 39.1607 44.302 39.4472 44.302C39.5189 44.302 39.5906 44.302 39.7339 44.302C40.0205 44.302 40.3787 44.3732 40.6654 44.3732C38.3008 46.8661 36.0795 48.0057 35.0047 48.5043ZM26.9077 46.8661C26.8362 46.9374 26.7645 46.9374 26.7645 47.0085C26.5495 47.2223 26.2629 47.5072 26.0479 47.7208C25.9763 47.7921 25.9763 47.7921 25.9046 47.8632C25.6897 48.077 25.4747 48.2906 25.3314 48.5043C25.2597 48.5755 25.2597 48.5755 25.1881 48.6468H24.8298C24.7581 48.5755 24.7581 48.5755 24.6865 48.5043C24.4716 48.2906 24.2566 48.077 24.1132 47.8632C24.0417 47.7921 24.0417 47.7921 23.97 47.7208C23.755 47.5072 23.4684 47.2223 23.2534 47.0085C23.1818 46.9374 23.1101 46.8661 23.1101 46.8661C22.8952 46.6525 22.6802 46.51 22.5369 46.2963C22.4652 46.2251 22.3936 46.1538 22.322 46.1538C22.107 45.9402 21.8204 45.7265 21.6054 45.5128L21.5337 45.4416C21.3187 45.2279 21.1038 45.0855 20.8888 44.8718C20.8172 44.8006 20.7456 44.8006 20.7456 44.7293C20.5306 44.5869 20.3156 44.3732 20.1723 44.2308C20.1723 44.2308 20.1007 44.2308 20.1007 44.1595C19.8857 44.0171 19.7423 43.8034 19.5274 43.661C19.4558 43.5897 19.4558 43.5897 19.3841 43.5185C19.2408 43.4473 19.1691 43.3048 19.0259 43.2336L18.9542 43.1624L25.1165 39.3163L31.2787 43.1624L31.2071 43.2336C31.0637 43.3048 30.9921 43.4473 30.8487 43.5185C30.7771 43.5897 30.7771 43.5897 30.7055 43.661C30.4905 43.8034 30.3471 43.9459 30.1322 44.1595C30.1322 44.1595 30.1322 44.1595 30.0606 44.2308C29.8456 44.3732 29.7022 44.5869 29.4873 44.7293C29.4157 44.8006 29.344 44.8006 29.344 44.8718C29.1291 45.0142 28.9141 45.2279 28.6991 45.4416L28.6274 45.5128C28.4125 45.7265 28.1259 45.9402 27.911 46.1538C27.8393 46.2251 27.7676 46.2963 27.696 46.2963C27.3377 46.51 27.1227 46.7236 26.9077 46.8661ZM16.3029 44.7293C16.3029 44.8006 16.2314 44.8006 16.2314 44.8718C16.1597 45.0142 16.1597 45.0855 16.088 45.2279C16.088 45.2991 16.088 45.2991 16.0164 45.3704C15.9447 45.5128 15.873 45.7265 15.8014 45.9402C15.7297 46.1538 15.6581 46.2963 15.5865 46.51C15.5865 46.5812 15.5148 46.6525 15.5148 46.7236C15.4431 46.8661 15.4431 47.0085 15.3715 47.151C15.3715 47.2223 15.2998 47.2934 15.2998 47.3647C15.2281 47.5072 15.2281 47.6496 15.1566 47.7208C15.1566 47.7921 15.0849 47.8632 15.0849 47.9345C15.0132 48.077 15.0132 48.2194 14.9416 48.2906C14.9416 48.3619 14.9416 48.433 14.8699 48.433C13.8668 48.0057 11.5738 46.7949 9.06591 44.302C9.35253 44.302 9.63915 44.2308 9.99741 44.2308C10.0691 44.2308 10.1407 44.2308 10.284 44.2308C10.5707 44.2308 10.8573 44.1595 11.1439 44.1595C11.2871 44.1595 11.4305 44.1595 11.5738 44.1595C11.8604 44.1595 12.1471 44.0883 12.4336 44.0883C12.577 44.0883 12.6486 44.0883 12.792 44.0883C13.1502 44.0883 13.5801 44.0171 13.9384 44.0171C14.0101 44.0171 14.0817 44.0171 14.225 44.0171C14.5117 44.0171 14.7982 44.0171 15.1566 43.9459C15.2281 43.9459 15.3715 43.9459 15.4431 43.9459C15.8014 43.9459 16.1597 43.9459 16.4463 43.9459H16.5179C16.5179 43.9459 16.5179 44.0171 16.4463 44.0883C16.4463 44.1595 16.3746 44.2308 16.3746 44.302C16.3746 44.3732 16.3029 44.4444 16.3029 44.4444C16.3746 44.5157 16.3029 44.6581 16.3029 44.7293ZM6.9163 41.8091C5.55487 40.0285 4.33675 38.0342 3.26193 35.8262C3.47689 35.6837 3.76351 35.5413 3.97847 35.4701C4.19343 35.3988 4.33675 35.2564 4.55171 35.1852C4.62337 35.1852 4.69501 35.1139 4.69501 35.1139C4.90997 34.9715 5.05329 34.9003 5.12494 34.829C5.19659 34.829 5.26825 34.7578 5.3399 34.7578C5.41155 34.6866 5.55487 34.6866 5.62652 34.6154C5.69817 34.6154 5.76983 34.5441 5.76983 34.5441C5.84148 34.4729 5.91313 34.4729 6.05644 34.4017C6.1281 34.4017 6.1281 34.3305 6.19975 34.3305C6.34306 34.2592 6.41472 34.2592 6.55802 34.188C6.62968 34.188 6.62968 34.188 6.62968 34.1168C6.70133 34.1168 6.77298 34.0456 6.84464 34.0456C6.9163 34.0456 6.9163 34.0456 6.98794 33.9743C7.0596 33.9743 7.0596 33.9743 7.13126 33.9031C7.13126 33.9031 7.13126 33.9031 7.2029 33.9031L7.13126 37.5356L6.9163 41.8091ZM2.90366 34.4729C2.83201 34.4729 2.83201 34.4729 2.90366 34.4729L2.83201 27.2079L5.3399 30.7692L6.70133 32.6211C6.70133 32.6211 6.62968 32.6211 6.55802 32.6924C6.55802 32.7635 6.48637 32.7635 6.41472 32.7635C6.34306 32.7635 6.2714 32.8348 6.19975 32.8348C6.1281 32.8348 6.1281 32.8348 6.05644 32.906C5.98479 32.906 5.91314 32.9773 5.76983 32.9773C5.69817 32.9773 5.69817 33.0484 5.62652 33.0484C5.55487 33.1197 5.41155 33.1197 5.3399 33.1909C5.26825 33.1909 5.26825 33.2622 5.19659 33.2622C5.05329 33.3333 4.98163 33.4046 4.83833 33.4046C4.83833 33.4758 4.76667 33.4758 4.76667 33.4758C4.62337 33.5471 4.48005 33.6182 4.33675 33.6894C4.26509 33.6894 4.26509 33.7607 4.19343 33.7607C4.05013 33.8319 3.83517 33.9031 3.69186 34.0456C3.69186 34.0456 3.62021 34.0456 3.62021 34.1168C3.33359 34.188 3.11863 34.3305 2.90366 34.4729ZM15.0132 1.63818C15.0132 1.7094 15.0849 1.78063 15.0849 1.85185C15.0849 1.9943 15.1566 2.06553 15.2281 2.20798C15.2281 2.27921 15.2998 2.35043 15.2998 2.49288C15.3715 2.63532 15.3715 2.70655 15.4431 2.849C15.4431 2.92023 15.5148 2.99145 15.5148 3.1339C15.5865 3.27635 15.5865 3.34758 15.6581 3.49003C15.6581 3.56125 15.7297 3.63248 15.7297 3.70371C15.8014 3.84616 15.8014 3.98861 15.873 4.13106C15.8014 4.05983 15.8014 4.13106 15.8014 4.20227C15.873 4.34473 15.9447 4.5584 16.0164 4.70085C16.0164 4.77208 16.088 4.8433 16.088 4.91453C16.1597 4.98575 16.1597 5.12821 16.2314 5.19943C16.2314 5.27066 16.3029 5.34188 16.3029 5.41311C16.3029 5.48433 16.3746 5.55556 16.3746 5.62678C16.3746 5.69801 16.4463 5.76924 16.4463 5.84045C16.4463 5.91168 16.5179 5.9829 16.5179 6.05413C16.5179 6.12535 16.5179 6.12535 16.5896 6.19658C16.5896 6.19658 16.5896 6.19658 16.5179 6.19658H16.4463C16.088 6.19658 15.8014 6.19658 15.4431 6.19658C15.3715 6.19658 15.2281 6.19658 15.1566 6.19658C14.8699 6.19658 14.5117 6.19658 14.1533 6.12535C14.0817 6.12535 14.0101 6.12535 13.9384 6.12535C13.5084 6.12535 13.1502 6.05413 12.7203 6.05413C12.6486 6.05413 12.6486 6.05413 12.577 6.05413C12.2187 6.05413 11.8604 5.9829 11.5021 5.9829C11.4305 5.9829 11.2872 5.9829 11.2155 5.9829C10.8573 5.9829 10.499 5.91168 10.1407 5.91168C10.0691 5.91168 10.0691 5.91168 9.99741 5.91168C9.63915 5.91168 9.35253 5.84045 8.99426 5.84045C11.0006 3.70371 13.0069 2.35043 15.0132 1.63818ZM23.0384 3.20513C23.1101 3.1339 23.1101 3.1339 23.1818 3.06268C23.3968 2.849 23.6833 2.5641 23.8983 2.35043C23.97 2.27921 23.97 2.27921 24.0417 2.20798C24.2566 1.9943 24.4716 1.78063 24.6149 1.56695C24.7581 1.49573 24.8298 1.4245 24.8298 1.4245H25.1881L25.2597 1.49573C25.4747 1.7094 25.6897 1.92308 25.9046 2.13675C25.9763 2.20798 25.9763 2.20798 26.0479 2.27921C26.2629 2.5641 26.5495 2.77777 26.8362 2.99145C26.9077 3.06268 26.9077 3.06268 26.9794 3.1339C27.1944 3.34758 27.4094 3.56125 27.6243 3.70371C27.696 3.77493 27.7676 3.84616 27.8393 3.84616C28.0542 4.05983 28.3409 4.2735 28.5559 4.48718L28.6274 4.5584C28.8424 4.77208 29.0574 4.91453 29.2723 5.12821C29.344 5.19943 29.4157 5.19943 29.4157 5.27066C29.6307 5.48433 29.8456 5.62678 30.0606 5.76924C30.2755 5.9829 30.4905 6.12535 30.6338 6.2678L30.7055 6.33903C30.8487 6.48148 31.0637 6.62393 31.2071 6.69516L24.9731 10.6837L18.8109 6.83761C19.0259 6.69516 19.1691 6.55271 19.3841 6.41025L19.4558 6.33903C19.6707 6.19658 19.814 6.05413 20.029 5.84045C20.2439 5.69801 20.4589 5.48433 20.6739 5.34188C20.7456 5.27066 20.8172 5.19943 20.8172 5.19943C21.0321 4.98575 21.2472 4.8433 21.4621 4.62963C21.4621 4.62963 21.4621 4.62963 21.5337 4.5584C21.7487 4.34473 22.0353 4.13106 22.2503 3.91738C22.322 3.84616 22.3936 3.77493 22.3936 3.77493C22.6802 3.56125 22.8952 3.34758 23.0384 3.20513ZM33.7149 5.41311C33.7149 5.34188 33.7866 5.27066 33.7866 5.19943C33.8582 5.12821 33.8582 4.98575 33.9299 4.91453C33.9299 4.8433 34.0016 4.77208 34.0016 4.70085C34.0732 4.5584 34.1449 4.34473 34.2165 4.20227C34.2165 4.13106 34.2881 4.13106 34.2881 4.05983C34.3598 3.91738 34.3598 3.77493 34.4315 3.63248C34.4315 3.56125 34.4315 3.49003 34.4315 3.4188C34.5031 3.27635 34.5031 3.20513 34.5748 3.06268C34.5748 2.99145 34.6465 2.92023 34.6465 2.849C34.718 2.70655 34.718 2.63532 34.7897 2.49288C34.7897 2.42166 34.8614 2.35043 34.8614 2.20798C34.933 2.06553 34.933 1.9943 34.933 1.85185C34.933 1.78063 35.0047 1.7094 35.0047 1.63818C37.011 2.35043 39.0173 3.70371 40.952 5.69801C40.5937 5.69801 40.307 5.76924 39.9488 5.76924C39.8771 5.76924 39.8772 5.76924 39.8055 5.76924C39.4472 5.76924 39.089 5.84045 38.7307 5.84045C38.659 5.84045 38.5158 5.84045 38.4441 5.84045C38.0858 5.84045 37.7275 5.91168 37.3693 5.91168C37.2976 5.91168 37.2976 5.91168 37.226 5.91168C36.7961 5.91168 36.3662 5.9829 36.0078 5.9829C35.9362 5.9829 35.8645 5.9829 35.7929 5.9829C35.4346 5.9829 35.148 5.9829 34.7897 6.05413C34.718 6.05413 34.5748 6.05413 34.5031 6.05413C34.1448 6.05413 33.7866 6.05413 33.5 6.05413H33.4283C33.4283 5.9829 33.4283 5.9829 33.5 5.91168C33.5 5.84046 33.5717 5.76924 33.5717 5.69801C33.5717 5.62678 33.6432 5.55556 33.6432 5.48433C33.6432 5.55556 33.6432 5.48433 33.7149 5.41311ZM40.952 42.9487C40.7371 42.9487 40.522 42.9487 40.3787 42.8775C40.1638 42.8775 40.0205 42.8774 39.8055 42.8063C39.5189 42.8063 39.2323 42.735 38.9457 42.735C38.8023 42.735 38.7307 42.735 38.5874 42.735C38.1574 42.735 37.7992 42.6638 37.3693 42.6638C37.226 42.6638 37.1543 42.6638 37.0826 42.6638C36.7961 42.6638 36.5094 42.6638 36.1512 42.5925C36.0078 42.5925 35.8645 42.5925 35.7213 42.5925C35.4346 42.5925 35.2197 42.5925 35.0047 42.5925C34.8614 42.5925 34.718 42.5925 34.5031 42.5925C34.2881 42.5925 34.0732 42.5925 33.8582 42.5925C33.7149 42.5925 33.5717 42.5925 33.4283 42.5925C33.3567 42.5925 33.285 42.5925 33.285 42.5925L34.2881 35.8974L41.5969 34.1168V34.188L41.8835 43.0912C41.8119 43.0912 41.7402 43.0912 41.6685 43.0912C41.3103 43.0199 41.167 42.9487 40.952 42.9487ZM16.2314 42.5214C16.0164 42.5214 15.8014 42.5214 15.5865 42.5214C15.4431 42.5214 15.2998 42.5214 15.0849 42.5214C14.8699 42.5214 14.5833 42.5214 14.3683 42.5214C14.225 42.5214 14.0817 42.5214 13.9384 42.5214C13.6518 42.5214 13.3652 42.5214 13.0069 42.5925C12.9352 42.5925 12.792 42.5925 12.7203 42.5925C12.2904 42.5925 11.9321 42.6638 11.5021 42.6638C11.3588 42.6638 11.2871 42.6638 11.1439 42.6638C10.8573 42.6638 10.5707 42.735 10.284 42.735C10.0691 42.735 9.92577 42.735 9.7108 42.8063C9.49584 42.8063 9.28088 42.8063 9.13757 42.8775C8.92261 42.8775 8.70764 42.8775 8.49268 42.9487C8.42103 42.9487 8.34938 42.9487 8.27772 42.9487L8.56434 34.0456V33.9743L14.7982 35.4701L15.873 35.755L16.088 37.1082L16.8762 42.4501C16.8046 42.4501 16.7329 42.4501 16.7329 42.4501C16.5179 42.5214 16.3746 42.5214 16.2314 42.5214ZM8.92261 7.12251C9.20922 7.12251 9.49584 7.19374 9.78245 7.19374C9.92577 7.19374 10.0691 7.19374 10.1407 7.19374C10.4273 7.19374 10.7856 7.26496 11.0722 7.26496C11.1439 7.26496 11.2872 7.26496 11.3588 7.26496C11.7888 7.26496 12.2187 7.33619 12.6486 7.33619C12.7203 7.33619 12.7203 7.33619 12.792 7.33619C13.1502 7.33619 13.5084 7.40741 13.9384 7.40741C14.0817 7.40741 14.1533 7.40741 14.2967 7.40741C14.5833 7.40741 14.8699 7.40741 15.1566 7.47864C15.2998 7.47864 15.4431 7.47864 15.5148 7.47864C15.8014 7.47864 16.088 7.47864 16.3029 7.47864C16.4463 7.47864 16.5179 7.47864 16.6613 7.47864C16.7329 7.47864 16.8046 7.47864 16.8762 7.47864L16.088 12.8205L15.8014 14.245L14.0817 14.6724L8.56434 16.0257L8.49268 14.3875L8.27772 7.05128C8.34938 7.05128 8.49268 7.05128 8.56434 7.05128C8.63599 7.12251 8.7793 7.12251 8.92261 7.12251ZM33.7149 7.54986C34.0016 7.54986 34.2881 7.54986 34.5031 7.54986C34.6465 7.54986 34.718 7.54986 34.8614 7.54986C35.148 7.54986 35.4346 7.54985 35.7213 7.47864C35.8645 7.47864 35.9362 7.47864 36.0795 7.47864C36.4377 7.47864 36.7961 7.40741 37.226 7.40741C37.2976 7.40741 37.2976 7.40741 37.3693 7.40741C37.7992 7.40741 38.2291 7.33619 38.659 7.33619C38.7307 7.33619 38.874 7.33619 38.9457 7.33619C39.2323 7.33619 39.5906 7.26496 39.8772 7.26496C40.0205 7.26496 40.1638 7.26496 40.2355 7.26496C40.5221 7.26496 40.8087 7.19374 41.0953 7.19374C41.2386 7.19374 41.3103 7.19374 41.4535 7.19374C41.5252 7.19374 41.6685 7.19374 41.7402 7.19374L41.5252 14.5299L41.4535 16.1681L34.1448 14.245L33.1417 7.54986C33.2133 7.54986 33.285 7.54986 33.3567 7.54986C33.5 7.54986 33.5717 7.54986 33.7149 7.54986ZM40.0205 19.5157L37.9425 23.433L36.1512 19.2308L34.7181 15.8832L41.0953 17.4501L40.0205 19.5157ZM17.951 40.6695L17.3062 36.3248L23.4684 38.7465L18.166 42.094L17.951 40.6695ZM9.13757 32.265L12.0754 26.6381L15.2281 34.2592L8.85095 32.6924L9.13757 32.265ZM8.92261 17.3789L15.2998 15.812L13.9384 19.0171L12.0754 23.3619L9.92577 19.302L8.92261 17.3789ZM18.166 7.97721L23.4684 11.3248L18.3093 13.3191L17.3062 13.7465L17.8077 10.6125L18.166 7.97721ZM16.9478 34.6866L12.8636 25L16.9478 15.3134L24.9731 12.1795L30.8487 14.4587L32.9984 15.3134L37.0826 25L35.5779 28.6325L33.07 34.6866L31.2071 35.3988L25.0448 37.8205L24.2566 37.5356L16.9478 34.6866ZM31.9235 36.6809L32.7118 36.396L31.852 42.1652L26.5495 38.7465L31.9235 36.6809ZM31.852 7.97721L32.7118 13.7465L26.5495 11.3248L30.7055 8.68946L31.852 7.97721ZM34.7181 34.2592L37.226 28.2764L37.9425 26.6381L40.6654 31.7664L41.167 32.6924L34.7181 34.2592ZM2.97532 25.0713L7.63284 18.5185L7.77614 18.3048L11.3588 25.0713L7.77614 31.8376L4.05013 26.567L2.97532 25.0713ZM42.2418 31.8376L41.7402 30.8405L38.659 25.0713L42.2418 18.3048L45.3945 22.8632L46.971 25.1425L42.2418 31.8376ZM47.1859 15.5983V22.8632L45.6812 20.7265L43.3166 17.3789C43.3882 17.3789 43.4599 17.3076 43.4599 17.3076H43.5316C43.6032 17.3076 43.6748 17.2365 43.7465 17.2365C43.8181 17.2365 43.8181 17.2365 43.8898 17.1652C43.9615 17.1652 44.1048 17.094 44.1765 17.0227C44.248 17.0227 44.248 17.0227 44.3197 16.9516C44.463 16.8803 44.6064 16.8091 44.7497 16.7379C45.1079 16.5955 45.4662 16.3818 45.8245 16.2393C45.8962 16.2393 45.8961 16.1681 45.9677 16.1681C46.1111 16.0969 46.3261 16.0257 46.4693 15.8832C46.541 15.8832 46.6126 15.812 46.6126 15.812C46.8276 15.7408 47.0425 15.6695 47.1859 15.5983ZM46.8276 14.245C46.6126 14.3875 46.3261 14.5299 46.1111 14.6012C46.1111 14.6012 46.0394 14.6012 46.0394 14.6724C45.8245 14.7436 45.6812 14.8861 45.4662 14.9573C45.3945 14.9573 45.3229 15.0285 45.3229 15.0285C45.1796 15.0997 45.0363 15.171 44.8929 15.2422C44.8213 15.2422 44.8213 15.3134 44.7497 15.3134C44.6064 15.3846 44.5347 15.4559 44.3914 15.4559C44.3197 15.4559 44.3197 15.5271 44.248 15.5271C44.1048 15.5983 43.9615 15.6695 43.8898 15.6695C43.7465 15.7408 43.6032 15.812 43.5316 15.812C43.5316 15.812 43.5316 15.812 43.4599 15.812C43.3882 15.8832 43.3166 15.8832 43.1732 15.8832H43.1016C43.03 15.8832 42.9583 15.9544 42.8867 15.9544C42.8867 15.9544 42.8867 15.9544 42.815 15.9544L43.03 8.04843C44.9646 10.6125 46.2544 13.0342 46.8276 14.245C46.8276 14.1738 46.8276 14.1738 46.8276 14.245ZM33.6432 1.49573C33.5717 1.63818 33.5717 1.78063 33.5 1.92308C33.5 1.9943 33.4283 2.06553 33.4283 2.13675C33.3567 2.27921 33.285 2.49288 33.285 2.63532V2.70655C33.2133 2.92023 33.1417 3.06268 33.07 3.27635C32.9984 3.34758 32.9984 3.34758 32.9984 3.4188C32.9268 3.56125 32.9268 3.70371 32.8551 3.77493C32.8551 3.84616 32.7834 3.91738 32.7834 3.98861C32.7118 4.05983 32.7118 4.20227 32.6401 4.2735C32.6401 4.34473 32.5684 4.41595 32.5684 4.48718C32.4968 4.5584 32.4968 4.70085 32.4968 4.77208C32.4968 4.8433 32.4252 4.91453 32.4252 4.98575C32.4252 5.05698 32.3535 5.12821 32.3535 5.19943C32.3535 5.27066 32.2819 5.34188 32.2819 5.34188C32.2102 5.48433 32.2102 5.55556 32.1385 5.69801C32.1385 5.69801 32.1385 5.69801 32.0669 5.69801C31.9952 5.62678 31.852 5.55556 31.7086 5.41311C31.637 5.34188 31.5653 5.34188 31.5653 5.27066C31.4936 5.19943 31.3504 5.12821 31.2787 5.05698C31.2071 4.98575 31.1354 4.91453 31.0637 4.91453C30.9921 4.8433 30.8487 4.77208 30.7055 4.62963C30.6338 4.5584 30.5621 4.48718 30.4905 4.48718C30.3471 4.34473 30.1322 4.20227 29.9889 4.05983L29.9172 3.98861C29.7022 3.84616 29.4873 3.63248 29.344 3.49003C29.2723 3.4188 29.2007 3.34758 29.129 3.34758C28.9858 3.20513 28.8424 3.06268 28.6991 2.92023C28.6274 2.849 28.5559 2.77777 28.4842 2.70655C28.3409 2.5641 28.1975 2.42166 28.0542 2.27921C27.911 2.13675 27.8393 2.13675 27.7676 2.06553C27.5526 1.85185 27.4094 1.7094 27.1944 1.49573L27.1227 1.4245H33.6432V1.49573ZM22.8952 1.4245C22.6802 1.63818 22.4652 1.85185 22.2503 2.06553C22.1786 2.13675 22.107 2.13675 22.0353 2.20798C21.892 2.35043 21.7487 2.49288 21.5337 2.63532C21.5337 2.70655 21.4621 2.77777 21.3904 2.849C21.2471 2.99145 21.0322 3.1339 20.8888 3.27635C20.8172 3.34758 20.8172 3.34758 20.7456 3.4188C20.3156 3.77493 19.8857 4.13106 19.5274 4.48718C19.4558 4.5584 19.3841 4.5584 19.3841 4.62963C19.2408 4.77208 19.0974 4.8433 18.9542 4.98575C18.8825 5.05698 18.8825 5.05698 18.8109 5.12821C18.6675 5.19943 18.5959 5.34188 18.4526 5.41311L18.381 5.48433C18.2376 5.62678 18.0943 5.69801 18.0226 5.76924C17.9511 5.62678 17.951 5.55556 17.8794 5.41311C17.8794 5.41311 17.8794 5.34188 17.8077 5.34188C17.7361 5.27066 17.7361 5.12821 17.6644 5.05698C17.6644 4.98575 17.5927 4.91453 17.5927 4.8433C17.5211 4.77208 17.5211 4.62963 17.4494 4.5584C17.4494 4.48718 17.3778 4.41595 17.3778 4.34473C17.3062 4.2735 17.3062 4.13106 17.2345 4.05983C17.2345 3.98861 17.1628 3.91738 17.1628 3.84616C17.0912 3.70371 17.0912 3.63248 17.0195 3.49003C17.0195 3.4188 16.9478 3.34758 16.9478 3.34758C16.8762 3.1339 16.8046 2.99145 16.7329 2.77777V2.70655C16.6613 2.5641 16.5896 2.35043 16.5896 2.20798C16.5179 2.06553 16.5179 1.9943 16.5179 1.92308C16.4463 1.78063 16.4463 1.63818 16.3746 1.49573V1.4245H22.8952ZM7.0596 11.9658L7.2029 16.0257H7.13126C7.0596 16.0257 7.0596 16.0257 6.98794 15.9544C6.9163 15.9544 6.9163 15.9544 6.84464 15.8832C6.77298 15.8832 6.70133 15.812 6.62968 15.812H6.55802C6.41472 15.7408 6.34306 15.7408 6.19975 15.6695C6.05644 15.5983 5.91313 15.5271 5.84148 15.5271C5.76983 15.5271 5.76983 15.5271 5.69817 15.4559C5.55487 15.3846 5.48321 15.3134 5.3399 15.3134C5.26825 15.3134 5.26825 15.2422 5.19659 15.2422C5.05329 15.171 4.90997 15.0997 4.76667 15.0285C4.62337 14.9573 4.55171 14.9573 4.55171 14.9573C4.33675 14.8861 4.19343 14.7436 3.97847 14.6724C3.76351 14.5299 3.54855 14.4587 3.26193 14.3163C3.26193 14.3163 3.26193 14.3163 3.19028 14.3163C3.76351 13.1767 5.05329 10.755 6.98794 8.26211L7.0596 11.9658ZM3.47689 15.9544C3.62021 16.0257 3.76351 16.0969 3.90682 16.1681C3.97847 16.1681 4.05013 16.2393 4.12179 16.3106C4.33675 16.3818 4.48005 16.453 4.62337 16.5242C4.62337 16.5242 4.62337 16.5242 4.69501 16.5242C5.05329 16.6667 5.41155 16.8803 5.69817 16.9516H5.76983C5.91314 17.0227 5.98479 17.0227 6.1281 17.094H6.19975C6.2714 17.094 6.41472 17.1652 6.48637 17.1652H6.55802C6.62968 17.1652 6.70133 17.2365 6.77298 17.2365L4.33675 20.7265L2.83201 22.8632V15.5983C2.97532 15.6695 3.11862 15.7408 3.26193 15.812C3.33359 15.8832 3.40524 15.8832 3.47689 15.9544ZM16.3746 48.5755C16.4463 48.433 16.4463 48.2906 16.5179 48.1481C16.5179 48.077 16.5896 48.0057 16.5896 47.9345C16.6613 47.7208 16.7329 47.5783 16.8046 47.3647C16.8046 47.2934 16.8046 47.2934 16.8762 47.2223C16.9478 47.0798 16.9478 46.9374 17.0195 46.7949C17.0195 46.7236 17.0912 46.6525 17.0912 46.5812C17.1628 46.51 17.1628 46.3675 17.2345 46.2963C17.2345 46.2251 17.3062 46.1538 17.3062 46.0826C17.3778 46.0114 17.3778 45.8689 17.3778 45.7977C17.3778 45.7265 17.4494 45.6553 17.4494 45.584C17.5211 45.5128 17.5211 45.3704 17.5927 45.2991C17.5927 45.2279 17.6644 45.1567 17.6644 45.0855C17.7361 44.943 17.7361 44.8718 17.8077 44.7293C17.8077 44.7293 17.8077 44.7293 17.8077 44.6581C17.8794 44.5157 17.951 44.3732 17.951 44.302C17.951 44.302 18.0226 44.302 18.0226 44.3732C18.0943 44.4444 18.2376 44.5157 18.3093 44.6581C18.381 44.7293 18.4526 44.7293 18.5242 44.8006C18.5959 44.8718 18.6675 44.943 18.8109 45.0142C18.8825 45.0855 18.9542 45.1567 19.0259 45.2279C19.0974 45.2991 19.2408 45.3704 19.3124 45.4416C19.3841 45.5128 19.4558 45.584 19.5991 45.6553C19.7423 45.7265 19.814 45.8689 19.9573 45.9402C20.029 46.0114 20.1723 46.0826 20.2439 46.2251C20.3872 46.3675 20.5306 46.51 20.7456 46.6525C20.8172 46.7236 20.8888 46.7949 21.0322 46.8661C21.1755 47.0085 21.3187 47.0798 21.3904 47.2223C21.4621 47.2934 21.6054 47.3647 21.6771 47.4359C21.8204 47.5783 21.9636 47.7208 22.107 47.7921C22.1786 47.8632 22.2503 47.9345 22.322 48.0057C22.4652 48.1481 22.6802 48.3619 22.8235 48.5043C22.8235 48.5755 22.8952 48.5755 22.8952 48.5755H16.3746C16.3746 48.6468 16.3746 48.6468 16.3746 48.5755ZM27.1944 48.5755C27.3377 48.433 27.5526 48.2194 27.696 48.077C27.7676 48.0057 27.8393 47.9345 27.911 47.8632C28.0542 47.7208 28.1975 47.5783 28.3409 47.4359C28.4125 47.3647 28.4842 47.2934 28.6274 47.2223C28.7708 47.0798 28.9141 47.0085 29.0574 46.8661C29.1291 46.7949 29.2007 46.7236 29.2723 46.6525C29.4157 46.51 29.6307 46.3675 29.7739 46.2251C29.8456 46.1538 29.9172 46.0826 29.9889 46.0114C30.1322 45.8689 30.2755 45.7977 30.4188 45.6553C30.4905 45.584 30.5621 45.5128 30.7055 45.4416C30.7771 45.3704 30.9204 45.2991 30.9921 45.2279C31.0637 45.1567 31.1354 45.0855 31.2071 45.0142C31.2787 44.943 31.3504 44.8718 31.4936 44.8006C31.5653 44.7293 31.637 44.7293 31.7086 44.6581C31.852 44.5869 31.9235 44.5157 31.9952 44.3732C31.9952 44.3732 32.0669 44.3732 32.0669 44.302C32.1385 44.4444 32.1385 44.5157 32.2102 44.6581C32.2102 44.6581 32.2102 44.6581 32.2102 44.7293C32.2819 44.8718 32.2819 44.943 32.3535 45.0855C32.3535 45.1567 32.4252 45.2279 32.4252 45.2279C32.4968 45.2991 32.4968 45.4416 32.5684 45.5128C32.5684 45.584 32.6401 45.6553 32.6401 45.7265C32.7118 45.7977 32.7118 45.9402 32.7834 46.0114C32.7834 46.0826 32.8551 46.1538 32.8551 46.2251C32.9268 46.3675 32.9268 46.4387 32.9984 46.5812C32.9984 46.6525 33.07 46.7236 33.07 46.7949C33.1417 46.9374 33.2133 47.151 33.285 47.2934C33.285 47.2934 33.285 47.2934 33.285 47.3647C33.3567 47.5783 33.4283 47.7208 33.5 47.9345C33.5 48.0057 33.5 48.077 33.5717 48.077C33.6432 48.2194 33.6432 48.3619 33.7149 48.5043V48.5755H27.1944ZM42.815 33.9743C42.8867 33.9743 42.8867 34.0456 42.815 33.9743C42.8867 33.9743 42.9583 34.0456 43.03 34.0456C43.1016 34.0456 43.1016 34.0456 43.1732 34.1168C43.2449 34.1168 43.3166 34.188 43.3882 34.188C43.3882 34.188 43.4599 34.188 43.4599 34.2592C43.5316 34.3305 43.6748 34.3305 43.8181 34.4017C43.8898 34.4017 43.8898 34.4729 43.9615 34.4729C44.0331 34.5441 44.1048 34.5441 44.248 34.6154C44.3197 34.6154 44.3914 34.6866 44.3914 34.6866C44.463 34.7578 44.6064 34.7578 44.678 34.829C44.7497 34.829 44.8213 34.9003 44.8929 34.9003C45.0363 34.9715 45.1079 35.0427 45.2513 35.1139C45.3228 35.1139 45.3945 35.1852 45.3945 35.1852C45.6095 35.2564 45.7528 35.3988 45.9677 35.4701C46.1827 35.6125 46.3977 35.6837 46.6843 35.8262C45.6095 38.0342 44.3914 40.0285 43.03 41.8091L42.815 33.9743Z" fill="#100E31"/>
</g>
<defs>
<clipPath id="clip0_3_87">
<rect width="50" height="50" fill="white"/>
</clipPath>
</defs>
</svg>
