<svg width="50" height="50" viewBox="0 0 50 50" fill="none" xmlns="http://www.w3.org/2000/svg">
<g clip-path="url(#clip0_3_96)">
<path d="M50 44.8511C50 44.7868 50 44.7868 50 44.8511C50 44.7868 50 44.7225 50 44.7225C50 44.7225 50 44.7225 50 44.6582V44.594C50 44.594 50 44.594 50 44.5297C49.4859 42.5374 48.7789 40.4166 47.8792 38.1029C45.9512 33.0901 43.1234 27.5631 39.5244 21.6505C35.9897 15.8665 32.3908 10.7893 29.9486 7.51171C27.3136 3.977 25.4499 1.72765 25.4499 1.72765C25.4499 1.72765 25.4499 1.72765 25.3856 1.66338C25.3856 1.66338 25.3214 1.59912 25.2571 1.59912H25.1928C25.1285 1.59912 25.1285 1.59912 25.0643 1.53485C25.0643 1.53485 25.0643 1.53485 25 1.53485C25.0643 1.47058 25.0643 1.47058 25.0643 1.47058H25H24.9357H24.8715C24.8715 1.47058 24.8715 1.47058 24.8072 1.47058C24.7429 1.47058 24.7429 1.47058 24.6786 1.53485H24.6144C24.5501 1.53485 24.5501 1.59912 24.4859 1.59912C24.4859 1.59912 24.4859 1.59912 24.4216 1.66338C24.4216 1.66338 22.5578 3.91274 19.9228 7.44744C17.4807 10.6608 13.8818 15.8021 10.3471 21.5863C6.74807 27.4988 3.98458 33.0259 1.99228 38.0387C1.22108 40.4166 0.514139 42.5374 0 44.5297C0 44.5297 0 44.5297 0 44.594V44.6582C0 44.6582 0 44.6582 0 44.7225V44.7868V44.8511V44.9153V44.9796C0 44.9796 0 44.9796 0 45.0438C0 45.0438 0 45.1081 0.0642674 45.1081C0.0642674 45.1081 0.0642674 45.1723 0.128534 45.1723C0.128534 45.1723 0.128534 45.1723 0.192802 45.2367C0.192802 45.2367 0.25707 45.2367 0.25707 45.3009C0.25707 45.3009 0.25707 45.3009 0.321336 45.3652C0.321336 45.3652 0.321336 45.3652 0.385604 45.3652C0.385604 45.3652 0.385604 45.3652 0.449872 45.3652C0.578406 45.4294 2.89203 46.2649 8.35475 47.0362C13.1106 47.743 18.7661 48.1287 25 48.2572C31.2982 48.1287 36.8895 47.743 41.6452 47.0362C47.1079 46.2649 49.4859 45.3652 49.5501 45.3652C49.5501 45.3652 49.5501 45.3652 49.6144 45.3652C49.6144 45.3652 49.6144 45.3652 49.6786 45.3652C49.6786 45.3652 49.6786 45.3652 49.7429 45.3009C49.7429 45.3009 49.8072 45.3009 49.8072 45.2367C49.8072 45.2367 49.8072 45.2367 49.8715 45.1723C49.8715 45.1723 49.8715 45.1081 49.9357 45.1081C49.9357 45.1081 49.9357 45.1081 50 45.0438C50 45.0438 50 45.0438 50 44.9796C49.9357 44.9153 50 44.9153 50 44.8511ZM41.0026 45.7508C37.7249 46.2007 33.9975 46.522 29.9486 46.7148L37.4678 44.5297L41.0026 43.5015V45.7508ZM48.072 42.3446L46.8509 41.0593L45.3085 39.3883L46.9794 39.067C47.365 40.2238 47.7507 41.3164 48.072 42.3446ZM22.4293 11.1107C22.4935 11.175 22.4935 11.175 22.5578 11.2392C22.6864 11.3677 22.8149 11.4963 22.9434 11.6248C23.0077 11.6891 23.072 11.7533 23.1363 11.8176C23.2648 11.9462 23.329 12.0747 23.4576 12.2032C23.5219 12.2675 23.5219 12.2675 23.5861 12.3318C23.7146 12.4603 23.7789 12.5888 23.9074 12.7173C23.9074 12.7173 23.9075 12.7817 23.9718 12.7817C24.1003 12.9102 24.1645 13.0387 24.293 13.1029L20.6941 18.4372L18.7661 21.3292L22.4293 11.1107ZM26.1568 12.7173C26.2854 12.5888 26.3496 12.5246 26.4781 12.3961C26.5425 12.3318 26.5424 12.2675 26.6067 12.2675C26.671 12.1389 26.7995 12.0747 26.928 11.9462C26.9923 11.8819 27.0566 11.8176 27.1208 11.6891C27.1851 11.6248 27.3136 11.4963 27.3778 11.3677C27.4422 11.3035 27.5065 11.2392 27.5707 11.1107L31.2982 21.2649L25.7712 13.1029C25.8997 13.0387 25.964 12.9102 26.1568 12.7173ZM7.13368 38.4886L13.1748 30.905L9.38303 38.8742L8.03342 38.6171L7.13368 38.4886ZM25 14.1313L28.0848 18.6942L33.419 26.6634L39.3317 39.067L25 39.7097L10.6683 39.067L16.581 26.6634L21.6581 19.0798L25 14.1313ZM10.09 40.288L14.3317 40.4809L18.1234 40.6736L9.38303 41.8947L10.09 40.288ZM35.4113 40.4809L39.8458 40.288L40.5527 41.8947L31.8124 40.6736L35.4113 40.4809ZM40.617 38.9384L36.8252 30.9693L42.8663 38.5528L42.0951 38.6814L40.617 38.9384ZM7.84062 39.9024L8.86889 40.0953L8.03342 42.0875L2.5707 43.5015L6.23393 39.6454L7.84062 39.9024ZM41.1954 40.0953L42.2879 39.9024L43.8946 39.6454L47.5578 43.5015L42.0951 42.0875L41.1954 40.0953ZM38.4962 22.2932L42.545 36.1107L34.4473 26.0207L33.8689 24.7996L29.4344 12.5888L37.3393 21.1364L38.4962 22.2932ZM27.1208 9.76107C27.0566 9.82534 26.9923 9.82534 26.9923 9.8896C26.8637 10.0181 26.7352 10.2109 26.6067 10.3395C26.5424 10.4037 26.4781 10.468 26.4139 10.5323C26.2854 10.6608 26.1568 10.7893 26.0282 10.9179C25.964 10.9821 25.8997 11.0464 25.8355 11.1107C25.707 11.2392 25.5784 11.3677 25.4499 11.5606C25.3856 11.6248 25.3214 11.6891 25.3214 11.7533C25.1928 11.8819 25.0643 12.0104 25 12.1389C24.9357 12.0104 24.8072 11.8819 24.6786 11.7533C24.6144 11.6891 24.5501 11.6248 24.5501 11.5606C24.4216 11.4321 24.293 11.3035 24.1645 11.1107C24.1003 11.0464 24.036 10.9821 23.9718 10.9179C23.8432 10.7893 23.7146 10.6608 23.5861 10.5323C23.5219 10.468 23.4576 10.4037 23.3933 10.3395C23.2648 10.2109 23.1363 10.0181 23.0077 9.8896C22.9434 9.82534 22.9434 9.82534 22.8792 9.76107L24.9357 3.91274L27.1208 9.76107ZM11.5038 22.2932L20.5656 12.5888L16.1311 24.7354L15.4884 26.0207L7.45501 36.1107L9.83294 28.013L11.5038 22.2932ZM28.3419 8.28292C28.2776 8.34719 28.2133 8.47572 28.0848 8.53999C28.0206 8.60426 28.0206 8.60426 27.9563 8.66852L26.7995 5.39088C27.3779 6.09783 27.9563 6.93331 28.6632 7.83305C28.5989 8.02585 28.4704 8.15438 28.3419 8.28292ZM21.9794 8.73279C21.9152 8.66852 21.9152 8.66852 21.8509 8.60426C21.7867 8.47572 21.6581 8.41145 21.5938 8.28292C21.4653 8.15438 21.401 8.02585 21.2725 7.89732C21.9794 6.99757 22.6222 6.1621 23.1363 5.45516L21.9794 8.73279ZM11.3753 42.8587L25 40.9308L38.6247 42.8587L35.6041 43.7585L25 46.9076L14.3959 43.7585L11.3753 42.8587ZM45.5656 38.0387L44.473 38.2315L41.0669 26.7276C43.252 30.6479 45.0514 34.3755 46.4653 37.8459L45.5656 38.0387ZM28.6632 9.8896C28.7275 9.82534 28.8561 9.69681 28.9203 9.56827C29.0488 9.37546 29.1774 9.24693 29.3059 9.05413C29.3702 8.98987 29.4344 8.92559 29.4987 8.86133C30.9769 10.9179 32.9049 13.5528 34.8972 16.5734L28.6632 9.8896ZM20.5656 8.92559C20.6298 8.98987 20.6941 9.05413 20.7583 9.11839C20.8869 9.3112 21.0154 9.43973 21.1439 9.63253C21.2082 9.6968 21.3368 9.82534 21.401 9.95387L15.1671 16.6376C17.1594 13.5528 19.0231 10.9179 20.5656 8.92559ZM8.93316 26.7276L5.52699 38.2315L4.49872 38.0387L3.59897 37.8459C4.94859 34.3755 6.74807 30.6479 8.93316 26.7276ZM3.08483 39.067L4.75578 39.3883L1.92802 42.3446C2.24935 41.3164 2.63496 40.2238 3.08483 39.067ZM7.77635 43.5015V45.6222C5.71979 45.3009 4.11311 44.9796 3.02057 44.7225L7.77635 43.5015ZM9.0617 43.5015L12.5964 44.5297L20.0514 46.7148C16.0026 46.522 12.3393 46.2007 8.99743 45.7508V43.5015H9.0617ZM42.2236 45.6222V43.5015L46.9794 44.7225C45.8226 44.9796 44.2802 45.3009 42.2236 45.6222Z" fill="#100E31"/>
</g>
<defs>
<clipPath id="clip0_3_96">
<rect width="50" height="50" fill="white"/>
</clipPath>
</defs>
</svg>
