<svg width="50" height="50" viewBox="0 0 50 50" fill="none" xmlns="http://www.w3.org/2000/svg">
<g clip-path="url(#clip0_3_112)">
<path d="M48.4673 7.20963C48.4673 7.14467 48.4673 7.14467 48.4673 7.07972C48.4673 7.01477 48.4023 7.01477 48.4023 6.94982V6.88487C48.4023 6.88487 48.4023 6.88487 48.4023 6.81991L42.037 0.194855C42.037 0.194855 41.9721 0.194855 41.9721 0.129903L41.9071 0.0649516H41.8422C41.7772 0.0649516 41.7772 0 41.7123 0C41.6473 0 41.6473 0 41.5824 0C41.5824 0 41.5824 0 41.5174 0H8.39214C8.39214 0 8.39215 0 8.3272 0C8.26224 0 8.26224 0 8.19729 0C8.13234 0 8.13234 0 8.06739 0.0649516H8.00244L7.93749 0.129903C7.93749 0.129903 7.87253 0.129903 7.87253 0.194855L1.63718 6.81991C1.63718 6.81991 1.63718 6.81991 1.63718 6.88487V6.94982C1.63718 7.01477 1.57222 7.01477 1.57222 7.07972C1.44232 7.14467 1.44232 7.14467 1.44232 7.20963V7.27458V42.2186C1.44232 42.4134 1.50727 42.6083 1.63718 42.7382L7.74263 48.259C7.67768 48.5188 7.74263 48.8436 8.00244 48.9735C8.13234 49.0385 8.19729 49.1034 8.3272 49.1034C8.45709 49.1034 8.52204 49.1034 8.58699 49.0385C8.65195 49.1034 8.78185 49.1034 8.8468 49.1034H40.868C40.9978 49.1034 41.0628 49.1034 41.1277 49.0385C41.1927 49.1034 41.3226 49.1034 41.3875 49.1034C41.5174 49.1034 41.6473 49.1034 41.7123 48.9735C41.9721 48.8436 42.037 48.5188 41.9721 48.259L48.0776 42.7382C48.2075 42.6083 48.2724 42.4134 48.2724 42.2186V7.27458C48.4673 7.27458 48.4673 7.20963 48.4673 7.20963ZM2.74135 8.57362L5.59923 10.717V24.5517V38.3864L2.74135 40.4648V8.57362ZM8.26224 1.75369L10.3407 5.13117L6.18379 9.54788L3.06611 7.20963L8.26224 1.75369ZM46.8435 7.20963L43.7258 9.54788L39.569 5.13117L41.6473 1.75369L46.8435 7.20963ZM43.0114 24.5517V37.4121L40.6081 35.5935V24.5517V13.5099L43.0114 11.6913V24.5517ZM24.9548 43.2578H12.3541L13.6532 41.1793H24.9548H36.2564L37.5554 43.2578H24.9548ZM6.89825 24.5517V11.6913L9.30147 13.5099V24.5517V35.5935L6.89825 37.4121V24.5517ZM24.9548 5.84564H37.5554L36.2564 7.9241H24.9548H13.6532L12.3541 5.84564H24.9548ZM39.3091 24.5517V34.6192L37.8152 33.515V24.5517V15.5235L39.3091 14.4192V24.5517ZM24.9548 39.8153H14.4976L15.8616 37.607H25.0197H34.1779L35.5419 39.8153H24.9548ZM10.6005 24.5517V14.4192L12.0943 15.5235V24.4867V33.4501L10.6005 34.5542V24.5517ZM24.9548 9.22312H35.4769L34.113 11.4314H24.9548H15.8616L14.4976 9.22312H24.9548ZM34.1779 36.308H24.9548H15.7966L13.4584 33.58V24.4867V15.3936L15.7966 12.6656H25.0197H34.2429L36.6461 15.3936V24.4867V33.58L34.1779 36.308ZM37.2956 14.3543L35.2821 12.081L36.7111 9.80769L39.0493 13.0553L37.2956 14.3543ZM14.6924 12.0161L12.679 14.2893L10.9253 12.9903L13.2635 9.74269L14.6924 12.0161ZM12.679 34.7491L14.6924 37.0224L13.2635 39.2957L10.9253 36.0482L12.679 34.7491ZM35.2821 37.0224L37.2956 34.7491L39.0493 36.0482L36.7111 39.2957L35.2821 37.0224ZM40.0886 12.2109L37.4255 8.50866L38.8544 6.23536L42.6866 10.2623L40.0886 12.2109ZM12.4841 8.50866L9.82108 12.2109L7.22301 10.2623L11.0552 6.23536L12.4841 8.50866ZM9.82108 36.8276L12.4841 40.5298L11.0552 42.8031L7.22301 38.7761L9.82108 36.8276ZM37.4255 40.5298L40.0886 36.8276L42.6866 38.7761L38.8544 42.8031L37.4255 40.5298ZM38.3998 4.54662H24.9548H11.5747L9.56127 1.29903H40.3484L38.3998 4.54662ZM6.18379 39.5555L10.3407 43.9722L8.45709 47.0899L2.87125 42.0237L6.18379 39.5555ZM11.5747 44.5568H25.0197H38.4647L40.4783 47.7394H9.56127L11.5747 44.5568ZM39.569 43.9722L43.7258 39.5555L47.0384 42.0237L41.4525 47.0899L39.569 43.9722ZM44.3104 38.3864V24.5517V10.717L47.1683 8.57362V40.4648L44.3104 38.3864Z" fill="#100E31"/>
</g>
<defs>
<clipPath id="clip0_3_112">
<rect width="50" height="50" fill="white"/>
</clipPath>
</defs>
</svg>
